<svg width="24" height="22" viewBox="0 0 24 22" fill="none" xmlns="http://www.w3.org/2000/svg">
<path d="M9.1875 20.2988V13.248C9.1875 13.0202 9.25586 12.8379 9.39258 12.7012C9.53581 12.5645 9.72135 12.4961 9.94922 12.4961H14.0508C14.2786 12.4961 14.4609 12.5645 14.5977 12.7012C14.7344 12.8379 14.8027 13.0202 14.8027 13.248V20.2988H9.1875ZM5.36914 21.5684C4.62695 21.5684 4.04753 21.3665 3.63086 20.9629C3.21419 20.5592 3.00586 19.9993 3.00586 19.2832V8.45312L4.92969 7.14453V18.6875C4.92969 19 5.01107 19.2376 5.17383 19.4004C5.33659 19.5697 5.57096 19.6543 5.87695 19.6543H18.0742C18.3802 19.6543 18.6113 19.5697 18.7676 19.4004C18.9303 19.2376 19.0117 19 19.0117 18.6875V7.14453L20.9258 8.45312V19.2832C20.9258 19.9993 20.7207 20.5592 20.3105 20.9629C19.9004 21.3665 19.3242 21.5684 18.582 21.5684H5.36914ZM0.0761719 10.543C0.0761719 10.237 0.203125 9.97982 0.457031 9.77148L10.6328 1.22656C11.056 0.875 11.515 0.699219 12.0098 0.699219C12.5046 0.699219 12.9603 0.875 13.377 1.22656L23.543 9.77148C23.7969 9.97982 23.9238 10.2467 23.9238 10.5723C23.9238 10.8522 23.8262 11.0736 23.6309 11.2363C23.4421 11.3991 23.2077 11.4805 22.9277 11.4805C22.778 11.4805 22.6348 11.4447 22.498 11.373C22.3613 11.3014 22.2344 11.2201 22.1172 11.1289L12.4297 2.99414C12.293 2.87695 12.153 2.81836 12.0098 2.81836C11.8665 2.81836 11.7266 2.87695 11.5898 2.99414L1.89258 11.1289C1.76888 11.2201 1.63867 11.3014 1.50195 11.373C1.37174 11.4447 1.23177 11.4805 1.08203 11.4805C0.769531 11.4805 0.522135 11.3893 0.339844 11.207C0.164062 11.0182 0.0761719 10.7969 0.0761719 10.543ZM18.1621 5.80664V3.41406C18.1621 3.19922 18.2272 3.02669 18.3574 2.89648C18.4941 2.75977 18.6699 2.69141 18.8848 2.69141H20.2129C20.4277 2.69141 20.6003 2.75977 20.7305 2.89648C20.8607 3.02669 20.9258 3.19922 20.9258 3.41406V8.13086L18.1621 5.80664Z" fill="#EFEFEF"/>
</svg>
