<svg width="22" height="22" viewBox="0 0 22 22" fill="none" xmlns="http://www.w3.org/2000/svg">
<path d="M10.0137 21.5449C9.61003 21.5449 9.25846 21.431 8.95898 21.2031C8.66602 20.9753 8.47396 20.666 8.38281 20.2754L7.98242 18.5469L7.71875 18.459L6.22461 19.377C5.88607 19.5918 5.52799 19.6732 5.15039 19.6211C4.7793 19.5755 4.45052 19.4095 4.16406 19.123L2.79688 17.7656C2.50391 17.4727 2.33464 17.1406 2.28906 16.7695C2.24349 16.3984 2.32812 16.0436 2.54297 15.7051L3.48047 14.2109L3.39258 13.9668L1.66406 13.5664C1.27995 13.4753 0.970703 13.2799 0.736328 12.9805C0.508464 12.681 0.394531 12.3327 0.394531 11.9355V10.0117C0.394531 9.61458 0.508464 9.26953 0.736328 8.97656C0.964193 8.67708 1.27344 8.47852 1.66406 8.38086L3.37305 7.9707L3.4707 7.70703L2.5332 6.21289C2.31836 5.88086 2.23372 5.5293 2.2793 5.1582C2.32487 4.78711 2.49414 4.45508 2.78711 4.16211L4.1543 2.79492C4.44076 2.50846 4.76953 2.34245 5.14062 2.29688C5.51172 2.24479 5.86654 2.32292 6.20508 2.53125L7.70898 3.45898L7.98242 3.35156L8.38281 1.62305C8.47396 1.23893 8.66602 0.932943 8.95898 0.705078C9.25846 0.470703 9.61003 0.353516 10.0137 0.353516H11.9961C12.3997 0.353516 12.748 0.470703 13.041 0.705078C13.334 0.932943 13.526 1.23893 13.6172 1.62305L14.0176 3.35156L14.291 3.45898L15.7949 2.53125C16.1335 2.32292 16.4883 2.24479 16.8594 2.29688C17.237 2.34245 17.5658 2.50846 17.8457 2.79492L19.2129 4.16211C19.4993 4.45508 19.6654 4.78711 19.7109 5.1582C19.763 5.5293 19.6816 5.88086 19.4668 6.21289L18.5293 7.70703L18.6367 7.9707L20.3359 8.38086C20.7201 8.47201 21.026 8.66732 21.2539 8.9668C21.4883 9.26628 21.6055 9.61458 21.6055 10.0117V11.9355C21.6055 12.3327 21.4883 12.681 21.2539 12.9805C21.026 13.2734 20.7201 13.4688 20.3359 13.5664L18.6172 13.9668L18.5195 14.2109L19.457 15.7051C19.6719 16.0436 19.7533 16.3984 19.7012 16.7695C19.6556 17.1406 19.4896 17.4727 19.2031 17.7656L17.8359 19.123C17.5495 19.4095 17.2174 19.5755 16.8398 19.6211C16.4688 19.6732 16.1139 19.5918 15.7754 19.377L14.2715 18.459L14.0176 18.5469L13.6172 20.2754C13.526 20.666 13.334 20.9753 13.041 21.2031C12.748 21.431 12.3997 21.5449 11.9961 21.5449H10.0137ZM10.2578 19.7773H11.752C11.9082 19.7773 11.9961 19.7025 12.0156 19.5527L12.6016 17.1504C12.9271 17.0788 13.2298 16.9844 13.5098 16.8672C13.7897 16.7435 14.0501 16.6068 14.291 16.457L16.3906 17.7461C16.5143 17.8307 16.6348 17.8177 16.752 17.707L17.7871 16.6621C17.8913 16.571 17.901 16.4538 17.8164 16.3105L16.5273 14.2207C16.6641 13.9863 16.791 13.7259 16.9082 13.4395C17.0319 13.153 17.1296 12.8568 17.2012 12.5508L19.6133 11.9746C19.763 11.9486 19.8379 11.8574 19.8379 11.7012V10.2363C19.8379 10.0866 19.763 9.99544 19.6133 9.96289L17.2109 9.38672C17.1328 9.0612 17.0286 8.75195 16.8984 8.45898C16.7747 8.16602 16.6543 7.91536 16.5371 7.70703L17.8262 5.60742C17.9173 5.4707 17.9076 5.34701 17.7969 5.23633L16.7617 4.2207C16.651 4.11654 16.5273 4.10026 16.3906 4.17188L14.291 5.45117C14.0501 5.31445 13.7865 5.1875 13.5 5.07031C13.2201 4.94661 12.9206 4.8457 12.6016 4.76758L12.0156 2.3457C11.9961 2.19596 11.9082 2.12109 11.752 2.12109H10.2578C10.0951 2.12109 10.0007 2.19596 9.97461 2.3457L9.4082 4.74805C9.0957 4.82617 8.78646 4.93034 8.48047 5.06055C8.18099 5.18424 7.92057 5.3112 7.69922 5.44141L5.59961 4.17188C5.4694 4.10026 5.34896 4.11328 5.23828 4.21094L4.19336 5.23633C4.08919 5.34701 4.07943 5.4707 4.16406 5.60742L5.45312 7.70703C5.34245 7.91536 5.22201 8.16602 5.0918 8.45898C4.96159 8.75195 4.86068 9.0612 4.78906 9.38672L2.38672 9.96289C2.23698 9.99544 2.16211 10.0866 2.16211 10.2363V11.7012C2.16211 11.8574 2.23698 11.9486 2.38672 11.9746L4.78906 12.541C4.86719 12.8535 4.9681 13.153 5.0918 13.4395C5.21549 13.7194 5.34245 13.9798 5.47266 14.2207L4.17383 16.3203C4.0957 16.457 4.10547 16.5742 4.20312 16.6719L5.24805 17.707C5.36523 17.8177 5.48242 17.834 5.59961 17.7559L7.70898 16.457C7.94987 16.6068 8.21354 16.7435 8.5 16.8672C8.79297 16.9844 9.09245 17.0788 9.39844 17.1504L9.97461 19.5527C10.0007 19.7025 10.0951 19.7773 10.2578 19.7773ZM11 14.6602C10.3229 14.6602 9.70117 14.4941 9.13477 14.1621C8.57487 13.8236 8.12565 13.3743 7.78711 12.8145C7.45508 12.2546 7.28906 11.6328 7.28906 10.9492C7.28906 10.2721 7.45508 9.65365 7.78711 9.09375C8.12565 8.53385 8.57487 8.08789 9.13477 7.75586C9.70117 7.42383 10.3229 7.25781 11 7.25781C11.6836 7.25781 12.3053 7.42383 12.8652 7.75586C13.4251 8.08789 13.8711 8.53385 14.2031 9.09375C14.5352 9.65365 14.7012 10.2721 14.7012 10.9492C14.7012 11.6263 14.5352 12.248 14.2031 12.8145C13.8711 13.3809 13.4251 13.8301 12.8652 14.1621C12.3053 14.4941 11.6836 14.6602 11 14.6602ZM11 12.9805C11.3646 12.9805 11.6999 12.8893 12.0059 12.707C12.3118 12.5182 12.5527 12.2708 12.7285 11.9648C12.9108 11.6589 13.002 11.3203 13.002 10.9492C13.002 10.5781 12.9108 10.2428 12.7285 9.94336C12.5527 9.63737 12.3118 9.39323 12.0059 9.21094C11.6999 9.02865 11.3646 8.9375 11 8.9375C10.6289 8.9375 10.2904 9.02865 9.98438 9.21094C9.67839 9.39323 9.43424 9.63737 9.25195 9.94336C9.06966 10.2428 8.97852 10.5781 8.97852 10.9492C8.97852 11.3268 9.06966 11.6686 9.25195 11.9746C9.43424 12.2806 9.67839 12.5247 9.98438 12.707C10.2904 12.8893 10.6289 12.9805 11 12.9805Z" fill="#EFEFEF"/>
</svg>
