<svg width="24" height="20" viewBox="0 0 24 20" fill="none" xmlns="http://www.w3.org/2000/svg">
<path d="M5.06641 6.74609C5.14453 6.43359 5.23568 6.10156 5.33984 5.75C5.44401 5.39844 5.55143 5.07292 5.66211 4.77344C5.7793 4.46745 5.88672 4.23307 5.98438 4.07031C6.11458 3.82292 6.26758 3.64388 6.44336 3.5332C6.61914 3.42253 6.84701 3.3444 7.12695 3.29883C7.45898 3.25326 8.02539 3.21745 8.82617 3.19141C9.63346 3.16536 10.6914 3.15234 12 3.15234C13.3021 3.15234 14.3568 3.16536 15.1641 3.19141C15.9714 3.21745 16.541 3.25326 16.873 3.29883C17.153 3.3444 17.3809 3.42253 17.5566 3.5332C17.7324 3.64388 17.8854 3.82292 18.0156 4.07031C18.1068 4.23307 18.2077 4.46745 18.3184 4.77344C18.4355 5.07292 18.5462 5.39844 18.6504 5.75C18.7611 6.10156 18.8522 6.43359 18.9238 6.74609C18.9694 6.94141 18.9499 7.08464 18.8652 7.17578C18.7871 7.26693 18.6439 7.30924 18.4355 7.30273C17.9538 7.27018 17.4167 7.24089 16.8242 7.21484C16.2318 7.18229 15.5449 7.15951 14.7637 7.14648C13.9824 7.12695 13.0612 7.11719 12 7.11719C10.9388 7.11719 10.0176 7.12695 9.23633 7.14648C8.45508 7.15951 7.76823 7.18229 7.17578 7.21484C6.58984 7.24089 6.05599 7.27018 5.57422 7.30273C5.35938 7.30924 5.20964 7.26693 5.125 7.17578C5.04036 7.08464 5.02083 6.94141 5.06641 6.74609ZM4.93945 13.5918C4.4707 13.5918 4.08008 13.4355 3.76758 13.123C3.45508 12.8105 3.29883 12.4232 3.29883 11.9609C3.29883 11.4922 3.45508 11.1048 3.76758 10.7988C4.08008 10.4863 4.4707 10.3301 4.93945 10.3301C5.40169 10.3301 5.78906 10.4863 6.10156 10.7988C6.41406 11.1048 6.57031 11.4922 6.57031 11.9609C6.57031 12.4232 6.41406 12.8105 6.10156 13.123C5.78906 13.4355 5.40169 13.5918 4.93945 13.5918ZM9.36328 13.1816C9.01172 13.1816 8.72526 13.0742 8.50391 12.8594C8.28906 12.638 8.18164 12.3516 8.18164 12C8.18164 11.6549 8.28906 11.375 8.50391 11.1602C8.72526 10.9388 9.01172 10.8281 9.36328 10.8281H14.6367C14.9818 10.8281 15.2617 10.9388 15.4766 11.1602C15.6979 11.375 15.8086 11.6549 15.8086 12C15.8086 12.3516 15.6979 12.638 15.4766 12.8594C15.2617 13.0742 14.9818 13.1816 14.6367 13.1816H9.36328ZM19.0605 13.5918C18.5983 13.5918 18.2109 13.4355 17.8984 13.123C17.5924 12.8105 17.4395 12.4232 17.4395 11.9609C17.4395 11.4922 17.5924 11.1048 17.8984 10.7988C18.2109 10.4863 18.5983 10.3301 19.0605 10.3301C19.5293 10.3301 19.9167 10.4863 20.2227 10.7988C20.5352 11.1048 20.6914 11.4922 20.6914 11.9609C20.6914 12.4232 20.5352 12.8105 20.2227 13.123C19.9167 13.4355 19.5293 13.5918 19.0605 13.5918ZM12 16.4238C11.1667 16.4238 10.2878 16.4141 9.36328 16.3945C8.44531 16.375 7.54362 16.349 6.6582 16.3164C5.7793 16.2773 4.97201 16.235 4.23633 16.1895C3.50065 16.1439 2.90169 16.0951 2.43945 16.043C1.73633 15.9583 1.18945 15.7207 0.798828 15.3301C0.414714 14.9395 0.222656 14.4089 0.222656 13.7383V12.0195C0.222656 11.4466 0.261719 10.9453 0.339844 10.5156C0.417969 10.0859 0.544922 9.68555 0.720703 9.31445C0.902995 8.94336 1.14714 8.55924 1.45312 8.16211L2.3125 7.07812C2.4362 6.49219 2.58268 5.91276 2.75195 5.33984C2.92122 4.76693 3.08724 4.2526 3.25 3.79688C3.41276 3.34115 3.55273 2.99284 3.66992 2.75195C3.93685 2.17904 4.32422 1.72005 4.83203 1.375C5.33984 1.02995 5.93229 0.815104 6.60938 0.730469C6.83724 0.704427 7.21159 0.681641 7.73242 0.662109C8.25326 0.636068 8.87826 0.616536 9.60742 0.603516C10.3366 0.590495 11.1341 0.583984 12 0.583984C12.8594 0.583984 13.6536 0.590495 14.3828 0.603516C15.1185 0.616536 15.7435 0.632812 16.2578 0.652344C16.7786 0.671875 17.1562 0.697917 17.3906 0.730469C18.0612 0.821615 18.6504 1.03971 19.1582 1.38477C19.6725 1.72331 20.0664 2.17904 20.3398 2.75195C20.4505 2.99284 20.5872 3.34115 20.75 3.79688C20.9193 4.2526 21.0853 4.76693 21.248 5.33984C21.4173 5.91276 21.5605 6.49219 21.6777 7.07812L22.5469 8.16211C22.8529 8.55924 23.097 8.94336 23.2793 9.31445C23.4616 9.68555 23.5885 10.0859 23.6602 10.5156C23.7383 10.9453 23.7773 11.4466 23.7773 12.0195V13.7383C23.7773 14.4089 23.5853 14.9395 23.2012 15.3301C22.8171 15.7207 22.2702 15.9583 21.5605 16.043C21.0983 16.0951 20.4993 16.1439 19.7637 16.1895C19.028 16.235 18.2174 16.2773 17.332 16.3164C16.4531 16.349 15.5514 16.375 14.627 16.3945C13.709 16.4141 12.8333 16.4238 12 16.4238ZM12 14.8613C12.8398 14.8613 13.7057 14.8516 14.5977 14.832C15.4961 14.8125 16.3652 14.7865 17.2051 14.7539C18.0514 14.7214 18.8132 14.6855 19.4902 14.6465C20.1673 14.6074 20.7044 14.5618 21.1016 14.5098C21.5182 14.4642 21.8112 14.3372 21.9805 14.1289C22.1497 13.9141 22.2344 13.6178 22.2344 13.2402V11.9414C22.2344 11.4987 22.2051 11.1211 22.1465 10.8086C22.0879 10.4961 21.9902 10.2064 21.8535 9.93945C21.7168 9.66602 21.5345 9.37956 21.3066 9.08008L20.252 7.69336C20.1868 7.36784 20.1022 7.00651 19.998 6.60938C19.9004 6.21224 19.7897 5.81836 19.666 5.42773C19.5488 5.0306 19.4284 4.66276 19.3047 4.32422C19.181 3.98568 19.0703 3.70898 18.9727 3.49414C18.8034 3.14909 18.5658 2.87565 18.2598 2.67383C17.9603 2.47201 17.5892 2.34505 17.1465 2.29297C16.9382 2.26042 16.5931 2.23112 16.1113 2.20508C15.6361 2.17904 15.0469 2.15951 14.3438 2.14648C13.6471 2.12695 12.8659 2.11719 12 2.11719C11.1406 2.11719 10.3626 2.12695 9.66602 2.14648C8.9694 2.15951 8.37695 2.17904 7.88867 2.20508C7.4069 2.23112 7.05534 2.26042 6.83398 2.29297C6.4043 2.34505 6.03646 2.47201 5.73047 2.67383C5.43099 2.86914 5.19987 3.13932 5.03711 3.48438C4.93294 3.70573 4.81901 3.98568 4.69531 4.32422C4.57161 4.66276 4.44792 5.0306 4.32422 5.42773C4.20052 5.82487 4.08659 6.22201 3.98242 6.61914C3.88477 7.00977 3.80664 7.36784 3.74805 7.69336L2.70312 9.08008C2.46875 9.37956 2.2832 9.66602 2.14648 9.93945C2.00977 10.2064 1.90885 10.4961 1.84375 10.8086C1.78516 11.1211 1.75586 11.4987 1.75586 11.9414V13.2402C1.75586 13.6178 1.84375 13.9108 2.01953 14.1191C2.19531 14.3275 2.48828 14.4577 2.89844 14.5098C3.30208 14.5618 3.83919 14.6107 4.50977 14.6562C5.18685 14.6953 5.94531 14.7311 6.78516 14.7637C7.625 14.7897 8.49414 14.8125 9.39258 14.832C10.2975 14.8516 11.1667 14.8613 12 14.8613ZM2.04883 19.1191C1.67122 19.1191 1.35547 18.9922 1.10156 18.7383C0.847656 18.4844 0.720703 18.1719 0.720703 17.8008V14.7148L4.53906 15.4082V17.8008C4.53906 18.1719 4.41211 18.4844 4.1582 18.7383C3.9043 18.9922 3.58854 19.1191 3.21094 19.1191H2.04883ZM20.7793 19.1191C20.4082 19.1191 20.0957 18.9922 19.8418 18.7383C19.5944 18.4844 19.4707 18.1719 19.4707 17.8008V15.4082L23.2793 14.7148V17.8008C23.2793 18.1719 23.1523 18.4844 22.8984 18.7383C22.6445 18.9922 22.332 19.1191 21.9609 19.1191H20.7793Z" fill="#EFEFEF"/>
</svg>
